<svg width="32" height="32" viewBox="0 0 32 32" fill="none" xmlns="http://www.w3.org/2000/svg">
<rect x="0.75" y="0.75" width="30.5" height="30.5" rx="6.64884" fill="#DEFC54"/>
<rect x="0.75" y="0.75" width="30.5" height="30.5" rx="6.64884" stroke="black" stroke-width="1.5" stroke-linejoin="bevel"/>
<path d="M19.0277 25.7813C16.7946 25.7813 14.7646 24.4777 13.6481 22.1046V31.9982H5.86621V7.93278H13.6481V11.1415C14.7308 8.73496 16.7946 7.46484 19.0277 7.46484C23.1555 7.46484 26.1329 11.2084 26.1329 16.6231C26.1329 21.9709 23.1555 25.7813 19.0277 25.7813ZM16.118 14.4839C14.8999 14.4839 13.9187 15.3195 13.6481 15.988V17.1579C14.0202 17.8932 14.8999 18.7622 16.118 18.7622C17.3698 18.7622 18.351 17.8932 18.351 16.6231C18.351 15.3195 17.3698 14.4839 16.118 14.4839Z" fill="black"/>
</svg>
